# xmcd CD database file
#
# Track frame offsets:
#	150
#	14657
#	29767
#	44987
#	59302
#	74875
#	90790
#	110132
#	125117
#	140097
#	155882
#	170402
#	185470
#	200657
#	214895
#	230460
#	246332
#	265650
#	280575
#	295472
#
# Disc length: 4145 seconds
#
# Revision: 2
# Processed by: cddbd v1.5PL3 Copyright (c) Steve Scherf et al.
# Submitted via: CDex 1.51
#
DISCID=4f102f14
DTITLE=Various Artist - Guest Spot Jazz Alto Sax
DYEAR=1900
DGENRE=Jazz
TTITLE0=A Night In Tunisia
TTITLE1=Bernie's Tune
TTITLE2=Fly Me To The Moon
TTITLE3=One Note Samba
TTITLE4=Opus One
TTITLE5=Satin Doll
TTITLE6=Slightly Out Of Tune
TTITLE7=Straight No Chaser
TTITLE8=Take The "A" Train
TTITLE9=Yardbird Suite
TTITLE10=A Night In Tunisia (Backing)
TTITLE11=Bernie's Tune (Backing)
TTITLE12=Fly Me To The Moon (Backing)
TTITLE13=One Note Samba (Backing)
TTITLE14=Opus One (Backing)
TTITLE15=Satin Doll (Backing)
TTITLE16=Slightly Out Of Tune (Backing)
TTITLE17=Straight No Chaser (Backing)
TTITLE18=Take The "A" Train (Backing)
TTITLE19=Yardbird Suite (Backing)
EXTD=
EXTT0=
EXTT1=
EXTT2=
EXTT3=
EXTT4=
EXTT5=
EXTT6=
EXTT7=
EXTT8=
EXTT9=
EXTT10=
EXTT11=
EXTT12=
EXTT13=
EXTT14=
EXTT15=
EXTT16=
EXTT17=
EXTT18=
EXTT19=
PLAYORDER=
